<?xml version="1.0" encoding="utf-8"?>
<!-- Generator: Adobe Illustrator 26.0.2, SVG Export Plug-In . SVG Version: 6.00 Build 0)  -->
<svg version="1.1" id="Layer_1" xmlns="http://www.w3.org/2000/svg" xmlns:xlink="http://www.w3.org/1999/xlink" x="0px" y="0px"
	 viewBox="0 0 1122.7 550.5" style="enable-background:new 0 0 1122.7 550.5;" xml:space="preserve">
<style type="text/css">
	.st0{fill:#FFFFFF;}
	.st1{fill:#65D4AD;}
</style>
<path class="st1" d="M833.1,550.5H289.9c-73.5,0-142.6-28.6-194.6-80.6S14.6,348.7,14.6,275.2S43.2,132.6,95.2,80.6S216.3,0,289.8,0
	H833c73.5,0,142.6,28.6,194.6,80.6s80.6,121.1,80.6,194.6s-28.6,142.6-80.6,194.6S906.6,550.5,833.1,550.5z M289.8,30
	c-65.5,0-127.1,25.5-173.4,71.8c-46.3,46.3-71.8,107.9-71.8,173.4s25.5,127.1,71.8,173.4s107.9,71.8,173.4,71.8H833
	c65.5,0,127.1-25.5,173.4-71.8s71.8-107.9,71.8-173.4s-25.5-127.1-71.8-173.4S898.6,30,833.1,30H289.8z"/>
<circle class="st0" cx="312.4" cy="275.2" r="189.8"/>
</svg>
