<svg xmlns="http://www.w3.org/2000/svg" viewBox="0 0 48 48"><path d="M24 0c6.37 0 12.47 2.53 16.97 7.03C45.47 11.53 48 17.64 48 24s-2.53 12.47-7.03 16.97C36.47 45.47 30.36 48 24 48s-12.47-2.53-16.97-7.03a23.993 23.993 0 010-33.94C11.53 2.53 17.63 0 24 0zM13.5 22.5a1.499 1.499 0 00-1.06 2.56c.28.28.66.44 1.06.44h17.38l-6.44 6.44a1.499 1.499 0 102.12 2.12l9-9c.14-.14.25-.3.33-.49.08-.18.11-.38.11-.57s-.04-.39-.11-.57c-.08-.18-.19-.35-.33-.49l-9-9a1.499 1.499 0 10-2.12 2.12l6.44 6.44H13.5z" fill="#fff"/></svg>