<?xml version="1.0" encoding="utf-8"?>
<!-- Generator: Adobe Illustrator 21.1.0, SVG Export Plug-In . SVG Version: 6.00 Build 0)  -->
<svg version="1.1" id="Layer_2" xmlns="http://www.w3.org/2000/svg" xmlns:xlink="http://www.w3.org/1999/xlink" x="0px" y="0px"
	 viewBox="0 0 27 21" style="enable-background:new 0 0 27 21;" xml:space="preserve">
<style type="text/css">
	.st0{fill:#22C6FF;}
</style>
<path class="st0" d="M25.2,3.3H1.7C0.7,3.3,0,2.6,0,1.7v0C0,0.7,0.7,0,1.7,0l23.6,0c0.9,0,1.7,0.7,1.7,1.7v0
	C26.9,2.6,26.2,3.3,25.2,3.3z"/>
<path class="st0" d="M25.2,12.1H1.7c-0.9,0-1.7-0.7-1.7-1.7v0c0-0.9,0.7-1.7,1.7-1.7h23.6c0.9,0,1.7,0.7,1.7,1.7v0
	C26.9,11.4,26.2,12.1,25.2,12.1z"/>
<path class="st0" d="M25.2,20.9H1.7c-0.9,0-1.7-0.7-1.7-1.7v0c0-0.9,0.7-1.7,1.7-1.7h23.6c0.9,0,1.7,0.7,1.7,1.7v0
	C26.9,20.2,26.2,20.9,25.2,20.9z"/>
</svg>
