<svg xmlns="http://www.w3.org/2000/svg" viewBox="0 0 69.1 51.8"><defs><style>.cls-1{fill:#22c6ff;}</style></defs><title>Asset 2</title><g id="Layer_2" data-name="Layer 2"><g id="Layer_1-2" data-name="Layer 1"><path class="cls-1" d="M51.6,48.6c3.1-1.7,3.9-3.2,3.3-6.6a22.6,22.6,0,0,0-1-4.5A20.1,20.1,0,0,0,42.7,25.3l-2.1-1,1.7-1.5a13.7,13.7,0,0,0,5-10,12.6,12.6,0,0,0-3.6-9.1,12.5,12.5,0,0,0-17.3-.4c-5.6,5.2-5.3,12.5,1,19.6l1.2,1.5-1.6.8-.5.3-1.1.6A20.1,20.1,0,0,0,15.1,39.9c-1.3,5.8-.2,7.8,5.5,9.8a41.9,41.9,0,0,0,13.7,2.1,42.6,42.6,0,0,0,5-.2C43.1,51.3,47.6,50.7,51.6,48.6Z"/><path class="cls-1" d="M23.1,23.3C19,18.2,17.9,12.6,20,6.6A10.1,10.1,0,0,0,7.6,9.9c-3.1,4.3-2.5,9.3,1.9,14.3l-1.6,1A15,15,0,0,0,0,38.6a4.1,4.1,0,0,0,1,2.9c2.8,2.7,6.4,3.3,10.2,3.6C11.2,35.5,15.1,28.3,23.1,23.3Z"/><path class="cls-1" d="M58.6,45.5c2.8-1,5.3-1.7,7.7-2.7a4.6,4.6,0,0,0,2.8-5c-.7-5.7-3.3-10-8.3-12.8l-1.4-.8c4.4-4.5,5.2-9.6,2.2-14.1a10,10,0,0,0-12-3.7,16.4,16.4,0,0,1-3,16.9C54.7,28.3,58.5,35.6,58.6,45.5Z"/><path class="cls-1" d="M23.1,23.3c-8,5-11.9,12.2-11.9,21.8-3.8-.3-7.4-.9-10.2-3.6a4.1,4.1,0,0,1-1-2.9A15,15,0,0,1,7.9,25.2l1.6-1c-4.4-5-5-10-1.9-14.3A10.1,10.1,0,0,1,20,6.6C17.9,12.6,19,18.2,23.1,23.3Z"/><path class="cls-1" d="M58.6,45.5c-.1-9.9-3.9-17.2-12-22.2a16.4,16.4,0,0,0,3-16.9,10,10,0,0,1,12,3.7c3,4.5,2.2,9.6-2.2,14.1l1.4.8c5,2.8,7.6,7.1,8.3,12.8a4.6,4.6,0,0,1-2.8,5C63.9,43.8,61.4,44.5,58.6,45.5Z"/></g></g></svg>