<?xml version="1.0" encoding="utf-8"?>
<!-- Generator: Adobe Illustrator 26.0.2, SVG Export Plug-In . SVG Version: 6.00 Build 0)  -->
<svg version="1.1" id="Layer_1" xmlns="http://www.w3.org/2000/svg" xmlns:xlink="http://www.w3.org/1999/xlink" x="0px" y="0px"
	 viewBox="0 0 475.2 520.4" style="enable-background:new 0 0 475.2 520.4;" xml:space="preserve">
<style type="text/css">
	.st0{fill:#FFFFFF;}
	.st1{fill:#65D4AD;}
</style>
<g>
	<path class="st0" d="M295.3,386.8c-6.2-3-13.3-3.5-19.8-1.2c-6.5,2.2-11.8,7-14.8,13.2c-15,30.8-44.2,52.3-78.1,57.3
		s-68.1-7.1-91.4-32.3c-23.2-25.2-32.5-60.3-24.8-93.7s31.5-60.8,63.4-73.3c6.4-2.5,11.6-7.4,14.4-13.7c2.8-6.3,2.9-13.5,0.4-19.9
		s-7.5-11.6-13.8-14.3c-6.3-2.7-13.5-2.8-19.9-0.3c-31.6,12.3-58.2,34.6-76,63.4c-17.7,28.9-25.6,62.7-22.3,96.4
		s17.5,65.4,40.4,90.3c23,24.9,53.4,41.6,86.8,47.6c33.3,6,67.7,0.9,97.9-14.4c30.2-15.3,54.5-40.1,69.3-70.6
		c3.1-6.2,3.6-13.3,1.3-19.8C306.2,395.1,301.5,389.8,295.3,386.8L295.3,386.8z"/>
	<path class="st0" d="M200,115.2c13.7,0,26.9-5.5,36.6-15.2s15.2-22.9,15.2-36.6s-5.5-26.9-15.2-36.6s-22.9-15.1-36.7-15.1
		c-13.7,0-26.9,5.5-36.6,15.2s-15.1,22.9-15.1,36.7c0,13.7,5.5,26.9,15.2,36.6C173.1,109.8,186.3,115.2,200,115.2L200,115.2z"/>
	<path class="st0" d="M457.9,366.3c-4-6.1-10.3-10.3-17.5-11.8s-14.6,0-20.7,4.1l-10.6,8.3l-45.2-54.8c-5.2-6.2-12.8-9.7-20.9-9.7
		h-90.4c-7,0-13.8-2.8-18.7-7.7c-5-5-7.8-11.7-7.8-18.7v-46.7l24.4,21.9l0,0c5.6,5,12.9,7.5,20.4,7.1s14.5-3.8,19.4-9.4
		c5-5.6,7.5-12.9,7.1-20.4s-3.8-14.5-9.4-19.4l-70.8-64.5c-5.3-4.9-12.3-7.5-19.4-7.3c-7.2,0.2-14,3.2-19,8.3s-7.9,12-7.9,19.2v110
		c0,21.7,8.7,42.4,24,57.7c15.3,15.3,36.1,23.9,57.7,23.9h77.7l52.8,64.4c5.2,6.1,12.8,9.6,20.9,9.6c5.5,0.1,10.9-1.5,15.5-4.6
		l30.9-21.7c5.9-4,10.1-10.3,11.5-17.3C463.2,379.6,461.8,372.3,457.9,366.3L457.9,366.3z"/>
</g>
</svg>
