<?xml version="1.0" encoding="utf-8"?>
<!-- Generator: Adobe Illustrator 21.1.0, SVG Export Plug-In . SVG Version: 6.00 Build 0)  -->
<svg version="1.1" id="Layer_1" xmlns="http://www.w3.org/2000/svg" xmlns:xlink="http://www.w3.org/1999/xlink" x="0px" y="0px"
	 viewBox="0 0 20 18.6" style="enable-background:new 0 0 20 18.6;" xml:space="preserve">
<style type="text/css">
	.st0{fill:#194A7A;}
</style>
<g>
	<path class="st0" d="M17.5,5.5c-0.2-0.4-0.4-0.7-0.6-0.9l-3.8-3.8c-0.2-0.2-0.5-0.4-0.9-0.6C11.8,0.1,11.5,0,11.2,0H3.4
		C3.1,0,2.8,0.1,2.6,0.3C2.4,0.6,2.3,0.8,2.3,1.2v16.3c0,0.3,0.1,0.6,0.3,0.8c0.2,0.2,0.5,0.3,0.8,0.3h13.2c0.3,0,0.6-0.1,0.8-0.3
		c0.2-0.2,0.3-0.5,0.3-0.8V6.6C17.8,6.3,17.7,5.9,17.5,5.5L17.5,5.5z M11.6,1.6c0.2,0.1,0.4,0.2,0.5,0.3l3.8,3.8
		C15.9,5.8,16,6,16.1,6.2h-4.6V1.6z M16.2,17H3.8V1.6H10v5c0,0.3,0.1,0.6,0.3,0.8c0.2,0.2,0.5,0.3,0.8,0.3h5V17z M16.2,17"/>
	<path class="st0" d="M14.3,12.4H5.7c-0.1,0-0.2,0-0.3,0.1c-0.1,0.1-0.1,0.2-0.1,0.3v0.8c0,0.1,0,0.2,0.1,0.3
		C5.5,13.9,5.6,14,5.7,14h8.5c0.1,0,0.2,0,0.3-0.1c0.1-0.1,0.1-0.2,0.1-0.3v-0.8c0-0.1,0-0.2-0.1-0.3C14.5,12.4,14.4,12.4,14.3,12.4
		L14.3,12.4z M14.3,12.4"/>
	<path class="st0" d="M5.5,9.4C5.4,9.5,5.4,9.6,5.4,9.7v0.8c0,0.1,0,0.2,0.1,0.3c0.1,0.1,0.2,0.1,0.3,0.1h8.5c0.1,0,0.2,0,0.3-0.1
		c0.1-0.1,0.1-0.2,0.1-0.3V9.7c0-0.1,0-0.2-0.1-0.3c-0.1-0.1-0.2-0.1-0.3-0.1H5.7C5.6,9.3,5.5,9.3,5.5,9.4L5.5,9.4z M5.5,9.4"/>
</g>
</svg>
