<?xml version="1.0" encoding="utf-8"?>
<!-- Generator: Adobe Illustrator 21.1.0, SVG Export Plug-In . SVG Version: 6.00 Build 0)  -->
<svg version="1.1" id="Layer_2" xmlns="http://www.w3.org/2000/svg" xmlns:xlink="http://www.w3.org/1999/xlink" x="0px" y="0px"
	 viewBox="0 0 27 21" style="enable-background:new 0 0 27 21;" xml:space="preserve">
<style type="text/css">
	.st0{fill:#22C6FF;}
</style>
<path class="st0" d="M20.6,19.9L4,3.3C3.3,2.6,3.2,1.6,4,0.9l0,0c0.6-0.6,1.7-0.7,2.4,0L23,17.5c0.6,0.6,0.7,1.7,0,2.4l0,0
	C22.3,20.6,21.3,20.6,20.6,19.9z"/>
<path class="st0" d="M23,3.3L6.4,19.9c-0.6,0.6-1.7,0.7-2.4,0l0,0c-0.6-0.6-0.7-1.7,0-2.4L20.6,0.9c0.6-0.6,1.7-0.7,2.4,0l0,0
	C23.7,1.6,23.7,2.6,23,3.3z"/>
</svg>
