<svg xmlns="http://www.w3.org/2000/svg" viewBox="0 0 48 48"><defs><clipPath id="a"><path fill="none" d="M0 0h48v48H0z"/></clipPath></defs><g clip-path="url(#a)"><path d="M24 3a20.996 20.996 0 0121 21 20.996 20.996 0 01-21 21A20.996 20.996 0 013 24 20.996 20.996 0 0124 3zm0 45c6.37 0 12.47-2.53 16.97-7.03C45.47 36.47 48 30.36 48 24s-2.53-12.47-7.03-16.97a23.993 23.993 0 00-33.94 0 23.993 23.993 0 000 33.94A24.01 24.01 0 0024 48zM13.5 25.5a1.499 1.499 0 01-1.06-2.56c.28-.28.66-.44 1.06-.44h17.38l-6.44-6.44a1.499 1.499 0 112.12-2.12l9 9c.14.14.25.3.33.49.08.18.11.38.11.57s-.04.39-.11.57c-.08.18-.19.35-.33.49l-9 9a1.499 1.499 0 11-2.12-2.12l6.44-6.44H13.5z" fill="#fff" fill-rule="evenodd"/></g></svg>