<?xml version="1.0" encoding="utf-8"?>
<!-- Generator: Adobe Illustrator 21.1.0, SVG Export Plug-In . SVG Version: 6.00 Build 0)  -->
<svg version="1.1" id="Layer_1" xmlns="http://www.w3.org/2000/svg" xmlns:xlink="http://www.w3.org/1999/xlink" x="0px" y="0px"
	 viewBox="0 0 21.9 31.6" style="enable-background:new 0 0 21.9 31.6;" xml:space="preserve">
<style type="text/css">
	.st0{clip-path:url(#SVGID_2_);fill:#00BDFF;}
</style>
<g>
	<defs>
		<rect id="SVGID_1_" y="0" width="21.9" height="31.6"/>
	</defs>
	<clipPath id="SVGID_2_">
		<use xlink:href="#SVGID_1_"  style="overflow:visible;"/>
	</clipPath>
	<path class="st0" d="M10.7,0C4.7,0.1,0,5.3,0,11.3v19c0,0.7,0.6,1.3,1.3,1.3h19.3c0.7,0,1.3-0.6,1.3-1.3V10.9
		C21.9,4.8,16.9-0.1,10.7,0 M11.9,21.7v4h-2v-4c-0.9-0.4-1.6-1.3-1.6-2.4c0-1.5,1.2-2.6,2.6-2.6s2.6,1.2,2.6,2.6
		C13.6,20.4,12.9,21.3,11.9,21.7 M18.4,12.9h-15v-2.2c0-4.1,3.4-7.5,7.5-7.5c4.1,0,7.5,3.4,7.5,7.5V12.9z"/>
</g>
</svg>
